<svg xmlns="http://www.w3.org/2000/svg" viewBox="0 0 360 190" role="img" aria-labelledby="title">
  <title id="title">SpielSignal – PC-Gaming-News, Tests und Deals auf einen Blick</title>
  <defs><linearGradient id="g" x1="130" y1="8" x2="230" y2="105"><stop stop-color="#3CE6FF"/><stop offset="1" stop-color="#4F7CFF"/></linearGradient></defs>
  <path d="M132 65a48 48 0 0 1 76-39M145 78a34 34 0 0 1 52-35M159 87a20 20 0 0 1 27-27M207 49a48 48 0 0 1-5 54M222 62a62 62 0 0 1-7 55" fill="none" stroke="url(#g)" stroke-width="8" stroke-linecap="round"/>
  <path d="m187 67 34-34" stroke="#F3F5F7" stroke-width="7" stroke-linecap="round"/><circle cx="179" cy="75" r="9" fill="#F3F5F7"/>
  <text x="180" y="143" text-anchor="middle" fill="#F3F5F7" font-family="Arial, Helvetica, sans-serif" font-size="39" font-weight="800">SpielSignal</text>
  <text x="180" y="169" text-anchor="middle" fill="#3CE6FF" font-family="Arial, Helvetica, sans-serif" font-size="11" font-weight="700" letter-spacing="1.2">PC-GAMING-NEWS, TESTS UND DEALS</text>
</svg>
