<svg xmlns="http://www.w3.org/2000/svg" viewBox="0 0 360 72" role="img" aria-labelledby="title">
  <title id="title">SpielSignal</title>
  <defs><linearGradient id="g" x1="6" y1="5" x2="58" y2="62"><stop stop-color="#3CE6FF"/><stop offset="1" stop-color="#4F7CFF"/></linearGradient></defs>
  <g transform="translate(4 4)">
    <path d="M6 37A25 25 0 0 1 46 16M14 43A18 18 0 0 1 41 22M23 46A10 10 0 0 1 36 31M47 28a25 25 0 0 1-2 28M54 34a31 31 0 0 1-4 25" fill="none" stroke="url(#g)" stroke-width="5" stroke-linecap="round"/>
    <path d="m36 36 17-17" stroke="#F3F5F7" stroke-width="4" stroke-linecap="round"/><circle cx="32" cy="40" r="5" fill="#F3F5F7"/>
  </g>
  <text x="78" y="46" fill="#F3F5F7" font-family="Arial, Helvetica, sans-serif" font-size="35" font-weight="800" letter-spacing="-1.2">SpielSignal</text>
</svg>
