<svg xmlns="http://www.w3.org/2000/svg" viewBox="0 0 800 450" role="img" aria-labelledby="t"><title id="t">Abstrakter Survival Demo-Platzhalter</title><defs><linearGradient id="g" y2="1"><stop stop-color="#17333b"/><stop offset="1" stop-color="#080f18"/></linearGradient></defs><rect width="800" height="450" fill="url(#g)"/><circle cx="650" cy="90" r="45" fill="#3CE6FF" opacity=".22"/><path d="M0 325 130 210l85 75 110-132 100 135 105-94 90 90 90-72 90 112v126H0Z" fill="#151B2E"/><g fill="#0B1020"><path d="m95 350 45-150 45 150Zm120 20 58-205 58 205Zm370 0 52-185 52 185Z"/></g><path d="M330 365h190l-24-105-62-43-70 48Z" fill="#202d42" stroke="#FFB84D"/><path d="m410 361 20-55 19 55Z" fill="#FFB84D"/><path d="M0 380h800" stroke="#3CE6FF" opacity=".25" stroke-width="3"/></svg>
